<svg width="305" height="73" viewBox="0 0 305 73" fill="none" xmlns="http://www.w3.org/2000/svg">
<path d="M93.5786 58.284C91.6039 58.284 89.8186 57.9459 88.2226 57.2696C86.6536 56.5934 85.4093 55.6195 84.4896 54.3481C83.5698 53.0767 83.0964 51.5754 83.0694 49.8442H89.1558C89.237 51.0074 89.6427 51.9271 90.3731 52.6034C91.1305 53.2796 92.1585 53.6178 93.4569 53.6178C94.7824 53.6178 95.8239 53.3067 96.5813 52.6845C97.3387 52.0353 97.7174 51.1967 97.7174 50.1688C97.7174 49.3302 97.4604 48.6404 96.9465 48.0994C96.4325 47.5584 95.7833 47.1391 94.9988 46.8415C94.2414 46.5169 93.1864 46.1653 91.8339 45.7865C89.9944 45.2455 88.4931 44.718 87.3299 44.2041C86.1938 43.6631 85.2064 42.8651 84.3678 41.8101C83.5563 40.728 83.1505 39.2943 83.1505 37.509C83.1505 35.8318 83.5698 34.3711 84.4084 33.1267C85.247 31.8824 86.4237 30.9356 87.9385 30.2864C89.4534 29.6101 91.1846 29.272 93.1323 29.272C96.0538 29.272 98.4207 29.9888 100.233 31.4225C102.073 32.8292 103.087 34.8039 103.276 37.3467H97.0276C96.9735 36.3728 96.5542 35.5748 95.7698 34.9527C95.0123 34.3035 93.9979 33.9788 92.7265 33.9788C91.6175 33.9788 90.7248 34.2629 90.0485 34.8309C89.3993 35.399 89.0747 36.2241 89.0747 37.3061C89.0747 38.0635 89.3181 38.6992 89.8051 39.2132C90.319 39.7001 90.9412 40.1059 91.6716 40.4305C92.429 40.728 93.484 41.0797 94.8365 41.4855C96.676 42.0265 98.1773 42.5675 99.3405 43.1085C100.504 43.6495 101.505 44.4611 102.343 45.5431C103.182 46.6251 103.601 48.0453 103.601 49.8036C103.601 51.3184 103.209 52.7251 102.424 54.0235C101.64 55.322 100.49 56.3634 98.9753 57.1479C97.4604 57.9053 95.6616 58.284 93.5786 58.284ZM129.423 46.2735C129.423 47.085 129.369 47.8154 129.26 48.4646H112.827C112.962 50.0876 113.53 51.359 114.531 52.2787C115.532 53.1985 116.763 53.6583 118.224 53.6583C120.334 53.6583 121.835 52.7521 122.728 50.9397H128.855C128.205 53.1038 126.961 54.8892 125.122 56.2958C123.282 57.6754 121.023 58.3652 118.345 58.3652C116.181 58.3652 114.234 57.8918 112.502 56.945C110.798 55.9712 109.459 54.6051 108.485 52.8468C107.539 51.0885 107.065 49.0597 107.065 46.7604C107.065 44.434 107.539 42.3917 108.485 40.6334C109.432 38.875 110.758 37.5225 112.462 36.5757C114.166 35.6289 116.127 35.1556 118.345 35.1556C120.482 35.1556 122.389 35.6154 124.067 36.5352C125.771 37.4549 127.083 38.7668 128.003 40.4711C128.949 42.1482 129.423 44.0823 129.423 46.2735ZM123.539 44.6504C123.512 43.1897 122.985 42.0265 121.957 41.1608C120.929 40.2682 119.671 39.8218 118.183 39.8218C116.776 39.8218 115.586 40.2546 114.612 41.1203C113.666 41.9588 113.084 43.1356 112.868 44.6504H123.539ZM132.108 46.7604C132.108 44.434 132.582 42.4052 133.529 40.6739C134.475 38.9156 135.787 37.5631 137.464 36.6163C139.142 35.6425 141.062 35.1556 143.226 35.1556C146.012 35.1556 148.312 35.8589 150.124 37.2655C151.964 38.6451 153.194 40.5928 153.817 43.1085H147.69C147.365 42.1347 146.81 41.3773 146.026 40.8362C145.269 40.2682 144.322 39.9841 143.186 39.9841C141.563 39.9841 140.278 40.5793 139.331 41.7695C138.384 42.9327 137.911 44.5963 137.911 46.7604C137.911 48.8974 138.384 50.561 139.331 51.7513C140.278 52.9144 141.563 53.496 143.186 53.496C145.485 53.496 146.986 52.4681 147.69 50.4122H153.817C153.194 52.8468 151.964 54.7809 150.124 56.2146C148.285 57.6483 145.985 58.3652 143.226 58.3652C141.062 58.3652 139.142 57.8918 137.464 56.945C135.787 55.9712 134.475 54.6186 133.529 52.8874C132.582 51.1291 132.108 49.0867 132.108 46.7604ZM179.2 35.5207V58H173.478V55.1597C172.748 56.1335 171.788 56.9044 170.597 57.4725C169.434 58.0135 168.163 58.284 166.783 58.284C165.025 58.284 163.47 57.9188 162.117 57.1885C160.764 56.4311 159.696 55.3355 158.912 53.9018C158.154 52.4411 157.775 50.7098 157.775 48.708V35.5207H163.456V47.8965C163.456 49.6819 163.902 51.0615 164.795 52.0353C165.688 52.9821 166.905 53.4555 168.447 53.4555C170.016 53.4555 171.247 52.9821 172.139 52.0353C173.032 51.0615 173.478 49.6819 173.478 47.8965V35.5207H179.2ZM190.485 39.0103C191.216 37.8201 192.162 36.8868 193.326 36.2105C194.516 35.5343 195.868 35.1961 197.383 35.1961V41.1608H195.882C194.097 41.1608 192.744 41.5801 191.824 42.4187C190.932 43.2573 190.485 44.718 190.485 46.8009V58H184.805V35.5207H190.485V39.0103ZM222.106 46.2735C222.106 47.085 222.052 47.8154 221.944 48.4646H205.511C205.646 50.0876 206.214 51.359 207.215 52.2787C208.216 53.1985 209.446 53.6583 210.907 53.6583C213.017 53.6583 214.518 52.7521 215.411 50.9397H221.538C220.889 53.1038 219.645 54.8892 217.805 56.2958C215.966 57.6754 213.707 58.3652 211.029 58.3652C208.865 58.3652 206.917 57.8918 205.186 56.945C203.482 55.9712 202.143 54.6051 201.169 52.8468C200.222 51.0885 199.749 49.0597 199.749 46.7604C199.749 44.434 200.222 42.3917 201.169 40.6334C202.116 38.875 203.441 37.5225 205.145 36.5757C206.85 35.6289 208.811 35.1556 211.029 35.1556C213.166 35.1556 215.073 35.6154 216.75 36.5352C218.454 37.4549 219.766 38.7668 220.686 40.4711C221.633 42.1482 222.106 44.0823 222.106 46.2735ZM216.223 44.6504C216.196 43.1897 215.668 42.0265 214.64 41.1608C213.612 40.2682 212.354 39.8218 210.867 39.8218C209.46 39.8218 208.27 40.2546 207.296 41.1203C206.349 41.9588 205.767 43.1356 205.551 44.6504H216.223Z" fill="white"/>
<path d="M246.906 38.4422C246.906 39.9571 246.541 41.3773 245.81 42.7027C245.107 44.0282 243.984 45.0967 242.443 45.9083C240.928 46.7198 239.007 47.1256 236.681 47.1256H231.933V58H226.253V29.6778H236.681C238.872 29.6778 240.738 30.0565 242.28 30.8139C243.822 31.5713 244.972 32.6128 245.729 33.9383C246.514 35.2638 246.906 36.7651 246.906 38.4422ZM236.437 42.5404C238.006 42.5404 239.169 42.1888 239.927 41.4855C240.684 40.7551 241.063 39.7407 241.063 38.4422C241.063 35.683 239.521 34.3035 236.437 34.3035H231.933V42.5404H236.437ZM249.478 46.6792C249.478 44.4069 249.925 42.3917 250.817 40.6334C251.737 38.875 252.968 37.5225 254.51 36.5757C256.079 35.6289 257.824 35.1556 259.744 35.1556C261.421 35.1556 262.882 35.4937 264.126 36.17C265.398 36.8462 266.412 37.6983 267.17 38.7263V35.5207H272.891V58H267.17V54.7133C266.439 55.7683 265.425 56.6475 264.126 57.3508C262.855 58.0271 261.381 58.3652 259.704 58.3652C257.81 58.3652 256.079 57.8783 254.51 56.9044C252.968 55.9306 251.737 54.5645 250.817 52.8062C249.925 51.0209 249.478 48.9785 249.478 46.6792ZM267.17 46.7604C267.17 45.3808 266.899 44.2041 266.358 43.2302C265.817 42.2294 265.087 41.4719 264.167 40.958C263.247 40.4169 262.26 40.1464 261.205 40.1464C260.15 40.1464 259.176 40.4034 258.283 40.9174C257.391 41.4314 256.66 42.1888 256.092 43.1897C255.551 44.1635 255.281 45.3267 255.281 46.6792C255.281 48.0318 255.551 49.222 256.092 50.2499C256.66 51.2508 257.391 52.0218 258.283 52.5628C259.203 53.1038 260.177 53.3743 261.205 53.3743C262.26 53.3743 263.247 53.1173 264.167 52.6034C265.087 52.0623 265.817 51.3049 266.358 50.3311C266.899 49.3302 267.17 48.14 267.17 46.7604ZM299.944 35.5207L286.027 68.631H279.981L284.85 57.4319L275.842 35.5207H282.213L288.015 51.2238L293.899 35.5207H299.944Z" fill="#5CE1E6"/>
<path d="M36.0678 0C28.9343 -8.50666e-08 21.9609 2.11534 16.0296 6.07852C10.0983 10.0417 5.47539 15.6747 2.7455 22.2652C0.0156126 28.8558 -0.698651 36.1078 0.693031 43.1043C2.08471 50.1007 5.51984 56.5274 10.564 61.5716C15.6082 66.6157 22.0348 70.0509 29.0313 71.4426C36.0278 72.8342 43.2798 72.12 49.8703 69.3901C56.4609 66.6602 62.0939 62.0373 66.0571 56.106C70.0202 50.1747 72.1356 43.2013 72.1356 36.0678L54.1017 36.0678C54.1017 39.6346 53.044 43.1212 51.0624 46.0869C49.0808 49.0526 46.2643 51.364 42.9691 52.7289C39.6738 54.0939 36.0478 54.451 32.5496 53.7552C29.0513 53.0593 25.838 51.3418 23.3159 48.8197C20.7938 46.2976 19.0763 43.0843 18.3804 39.586C17.6846 36.0878 18.0417 32.4618 19.4066 29.1665C20.7716 25.8713 23.083 23.0547 26.0487 21.0732C29.0144 19.0916 32.501 18.0339 36.0678 18.0339L36.0678 0Z" fill="white"/>
<path d="M36.0678 0C31.3313 -5.64821e-08 26.6412 0.932921 22.2652 2.7455C17.8893 4.55807 13.9132 7.21481 10.564 10.564C7.21481 13.9132 4.55807 17.8893 2.7455 22.2653C0.93292 26.6412 -7.1519e-07 31.3313 0 36.0678L18.0339 36.0678C18.0339 33.6996 18.5004 31.3545 19.4066 29.1665C20.3129 26.9785 21.6413 24.9905 23.3159 23.3159C24.9905 21.6413 26.9785 20.3129 29.1665 19.4066C31.3545 18.5004 33.6995 18.0339 36.0678 18.0339L36.0678 0Z" fill="#5CE1E6"/>
<circle cx="36.0681" cy="36.0681" r="11.2712" fill="#5CE1E6"/>
<path d="M47.3392 36.0681C47.3392 34.5879 47.0477 33.1222 46.4813 31.7548C45.9149 30.3873 45.0846 29.1448 44.038 28.0981C42.9914 27.0515 41.7488 26.2213 40.3814 25.6548C39.0139 25.0884 37.5482 24.7969 36.0681 24.7969C34.5879 24.7969 33.1222 25.0884 31.7548 25.6548C30.3873 26.2213 29.1448 27.0515 28.0981 28.0981C27.0515 29.1448 26.2213 30.3873 25.6548 31.7548C25.0884 33.1222 24.7969 34.5879 24.7969 36.0681L36.0681 36.0681H47.3392Z" fill="white"/>
</svg>
